<?xml version="1.0" encoding="UTF-8"?>
<svg xmlns="http://www.w3.org/2000/svg" xmlns:xlink="http://www.w3.org/1999/xlink" width="5184pt" height="2592.000001pt" viewBox="0 0 5184 2592.000001" version="1.2">
<defs>
<clipPath id="clip1">
  <path d="M 1 0 L 5183 0 L 5183 2591 L 1 2591 Z M 1 0 "/>
</clipPath>
<clipPath id="clip2">
  <path d="M 4992 1713 L 5183 1713 L 5183 2591 L 4992 2591 Z M 4992 1713 "/>
</clipPath>
<clipPath id="clip3">
  <path d="M 4268.46875 1594.9375 L 5547.429688 1776.261719 L 5401.992188 2802.105469 L 4123.027344 2620.78125 Z M 4268.46875 1594.9375 "/>
</clipPath>
<clipPath id="clip4">
  <path d="M 4268.46875 1594.9375 L 5547.429688 1776.261719 L 5401.992188 2802.105469 L 4123.027344 2620.78125 Z M 4268.46875 1594.9375 "/>
</clipPath>
<clipPath id="clip5">
  <path d="M 4268.46875 1594.9375 L 5547.71875 1776.304688 L 5402.320312 2801.855469 L 4123.070312 2620.488281 Z M 4268.46875 1594.9375 "/>
</clipPath>
<clipPath id="clip6">
  <path d="M 4689 2131 L 5183 2131 L 5183 2591 L 4689 2591 Z M 4689 2131 "/>
</clipPath>
<clipPath id="clip7">
  <path d="M 4268.46875 1594.9375 L 5547.429688 1776.261719 L 5401.992188 2802.105469 L 4123.027344 2620.78125 Z M 4268.46875 1594.9375 "/>
</clipPath>
<clipPath id="clip8">
  <path d="M 4268.46875 1594.9375 L 5547.429688 1776.261719 L 5401.992188 2802.105469 L 4123.027344 2620.78125 Z M 4268.46875 1594.9375 "/>
</clipPath>
<clipPath id="clip9">
  <path d="M 4268.46875 1594.9375 L 5547.71875 1776.304688 L 5402.320312 2801.855469 L 4123.070312 2620.488281 Z M 4268.46875 1594.9375 "/>
</clipPath>
<clipPath id="clip10">
  <path d="M 4689 1713 L 5183 1713 L 5183 2591 L 4689 2591 Z M 4689 1713 "/>
</clipPath>
<clipPath id="clip11">
  <path d="M 4268.46875 1594.9375 L 5547.429688 1776.261719 L 5401.992188 2802.105469 L 4123.027344 2620.78125 Z M 4268.46875 1594.9375 "/>
</clipPath>
<clipPath id="clip12">
  <path d="M 4268.46875 1594.9375 L 5547.429688 1776.261719 L 5401.992188 2802.105469 L 4123.027344 2620.78125 Z M 4268.46875 1594.9375 "/>
</clipPath>
<clipPath id="clip13">
  <path d="M 4268.46875 1594.9375 L 5547.71875 1776.304688 L 5402.320312 2801.855469 L 4123.070312 2620.488281 Z M 4268.46875 1594.9375 "/>
</clipPath>
<clipPath id="clip14">
  <path d="M 4473 2131 L 4903 2131 L 4903 2591 L 4473 2591 Z M 4473 2131 "/>
</clipPath>
<clipPath id="clip15">
  <path d="M 4268.46875 1594.9375 L 5547.429688 1776.261719 L 5401.992188 2802.105469 L 4123.027344 2620.78125 Z M 4268.46875 1594.9375 "/>
</clipPath>
<clipPath id="clip16">
  <path d="M 4268.46875 1594.9375 L 5547.429688 1776.261719 L 5401.992188 2802.105469 L 4123.027344 2620.78125 Z M 4268.46875 1594.9375 "/>
</clipPath>
<clipPath id="clip17">
  <path d="M 4268.46875 1594.9375 L 5547.71875 1776.304688 L 5402.320312 2801.855469 L 4123.070312 2620.488281 Z M 4268.46875 1594.9375 "/>
</clipPath>
<clipPath id="clip18">
  <path d="M 4124 2235 L 4903 2235 L 4903 2591 L 4124 2591 Z M 4124 2235 "/>
</clipPath>
<clipPath id="clip19">
  <path d="M 4268.46875 1594.9375 L 5547.429688 1776.261719 L 5401.992188 2802.105469 L 4123.027344 2620.78125 Z M 4268.46875 1594.9375 "/>
</clipPath>
<clipPath id="clip20">
  <path d="M 4268.46875 1594.9375 L 5547.429688 1776.261719 L 5401.992188 2802.105469 L 4123.027344 2620.78125 Z M 4268.46875 1594.9375 "/>
</clipPath>
<clipPath id="clip21">
  <path d="M 4268.46875 1594.9375 L 5547.71875 1776.304688 L 5402.320312 2801.855469 L 4123.070312 2620.488281 Z M 4268.46875 1594.9375 "/>
</clipPath>
<clipPath id="clip22">
  <path d="M 1 0 L 525 0 L 525 717 L 1 717 Z M 1 0 "/>
</clipPath>
<clipPath id="clip23">
  <path d="M 1103.148438 470.949219 L -198.261719 726.382812 L -433.335938 -471.292969 L 868.074219 -726.726562 Z M 1103.148438 470.949219 "/>
</clipPath>
<clipPath id="clip24">
  <path d="M 1103.148438 470.949219 L -198.261719 726.382812 L -433.335938 -471.292969 L 868.074219 -726.726562 Z M 1103.148438 470.949219 "/>
</clipPath>
<clipPath id="clip25">
  <path d="M 1103.148438 470.949219 L -198.191406 726.371094 L -433.328125 -471.628906 L 868.011719 -727.050781 Z M 1103.148438 470.949219 "/>
</clipPath>
<clipPath id="clip26">
  <path d="M 1 0 L 723 0 L 723 563 L 1 563 Z M 1 0 "/>
</clipPath>
<clipPath id="clip27">
  <path d="M 1103.148438 470.949219 L -198.261719 726.382812 L -433.335938 -471.292969 L 868.074219 -726.726562 Z M 1103.148438 470.949219 "/>
</clipPath>
<clipPath id="clip28">
  <path d="M 1103.148438 470.949219 L -198.261719 726.382812 L -433.335938 -471.292969 L 868.074219 -726.726562 Z M 1103.148438 470.949219 "/>
</clipPath>
<clipPath id="clip29">
  <path d="M 1103.148438 470.949219 L -198.191406 726.371094 L -433.328125 -471.628906 L 868.011719 -727.050781 Z M 1103.148438 470.949219 "/>
</clipPath>
<clipPath id="clip30">
  <path d="M 4192 0 L 5183 0 L 5183 1092 L 4192 1092 Z M 4192 0 "/>
</clipPath>
<clipPath id="clip31">
  <path d="M 4368 0 L 5183 0 L 5183 843 L 4368 843 Z M 4368 0 "/>
</clipPath>
<clipPath id="clip32">
  <path d="M 4584 0 L 5183 0 L 5183 573 L 4584 573 Z M 4584 0 "/>
</clipPath>
<clipPath id="clip33">
  <path d="M 4735 0 L 5183 0 L 5183 507 L 4735 507 Z M 4735 0 "/>
</clipPath>
<clipPath id="clip34">
  <path d="M 4929 0 L 5183 0 L 5183 260 L 4929 260 Z M 4929 0 "/>
</clipPath>
<clipPath id="clip35">
  <path d="M 5024 0 L 5183 0 L 5183 170 L 5024 170 Z M 5024 0 "/>
</clipPath>
</defs>
<g id="surface1">
<g clip-path="url(#clip1)" clip-rule="nonzero">
<path style=" stroke:none;fill-rule:nonzero;fill:rgb(100%,100%,100%);fill-opacity:1;" d="M 1 0 L 5183 0 L 5183 2598.496094 L 1 2598.496094 Z M 1 0 "/>
</g>
<path style=" stroke:none;fill-rule:nonzero;fill:rgb(100%,100%,100%);fill-opacity:1;" d="M 1 0 L 5183 0 L 5183 2591 L 1 2591 Z M 1 0 "/>
<path style=" stroke:none;fill-rule:nonzero;fill:rgb(0%,0%,0%);fill-opacity:1;" d="M 1 0 L 5183 0 L 5183 2591 L 1 2591 Z M 1 0 "/>
<g clip-path="url(#clip2)" clip-rule="nonzero">
<g clip-path="url(#clip3)" clip-rule="nonzero">
<g clip-path="url(#clip4)" clip-rule="nonzero">
<g clip-path="url(#clip5)" clip-rule="nonzero">
<path style=" stroke:none;fill-rule:nonzero;fill:rgb(87.059021%,0.779724%,74.899292%);fill-opacity:1;" d="M 5509.351562 1770.972656 L 4992.296875 1713.75 L 5420.457031 2661.511719 Z M 5509.351562 1770.972656 "/>
</g>
</g>
</g>
</g>
<g clip-path="url(#clip6)" clip-rule="nonzero">
<g clip-path="url(#clip7)" clip-rule="nonzero">
<g clip-path="url(#clip8)" clip-rule="nonzero">
<g clip-path="url(#clip9)" clip-rule="nonzero">
<path style=" stroke:none;fill-rule:nonzero;fill:rgb(69.40918%,0%,86.669922%);fill-opacity:1;" d="M 4902.675781 2609.667969 L 5420.457031 2661.511719 L 4689.027344 2131.59375 Z M 4902.675781 2609.667969 "/>
</g>
</g>
</g>
</g>
<g clip-path="url(#clip10)" clip-rule="nonzero">
<g clip-path="url(#clip11)" clip-rule="nonzero">
<g clip-path="url(#clip12)" clip-rule="nonzero">
<g clip-path="url(#clip13)" clip-rule="nonzero">
<path style=" stroke:none;fill-rule:nonzero;fill:rgb(71.369934%,5.099487%,87.059021%);fill-opacity:1;" d="M 5420.457031 2661.511719 L 4992.296875 1713.75 L 4689.027344 2131.59375 Z M 5420.457031 2661.511719 "/>
</g>
</g>
</g>
</g>
<g clip-path="url(#clip14)" clip-rule="nonzero">
<g clip-path="url(#clip15)" clip-rule="nonzero">
<g clip-path="url(#clip16)" clip-rule="nonzero">
<g clip-path="url(#clip17)" clip-rule="nonzero">
<path style=" stroke:none;fill-rule:nonzero;fill:rgb(64.309692%,14.509583%,66.668701%);fill-opacity:1;" d="M 4902.675781 2609.667969 L 4473.464844 2235.074219 L 4689.027344 2131.59375 Z M 4902.675781 2609.667969 "/>
</g>
</g>
</g>
</g>
<g clip-path="url(#clip18)" clip-rule="nonzero">
<g clip-path="url(#clip19)" clip-rule="nonzero">
<g clip-path="url(#clip20)" clip-rule="nonzero">
<g clip-path="url(#clip21)" clip-rule="nonzero">
<path style=" stroke:none;fill-rule:nonzero;fill:rgb(71.369934%,10.5896%,69.018555%);fill-opacity:1;" d="M 4473.464844 2235.074219 L 4902.675781 2609.667969 L 4124.945312 2620.972656 Z M 4473.464844 2235.074219 "/>
</g>
</g>
</g>
</g>
<g clip-path="url(#clip22)" clip-rule="nonzero">
<g clip-path="url(#clip23)" clip-rule="nonzero">
<g clip-path="url(#clip24)" clip-rule="nonzero">
<g clip-path="url(#clip25)" clip-rule="nonzero">
<path style=" stroke:none;fill-rule:nonzero;fill:rgb(87.059021%,0.779724%,74.899292%);fill-opacity:1;" d="M -150.050781 716.074219 L 524.203125 562.148438 L -427.601562 -442.828125 Z M -150.050781 716.074219 "/>
</g>
</g>
</g>
</g>
<g clip-path="url(#clip26)" clip-rule="nonzero">
<g clip-path="url(#clip27)" clip-rule="nonzero">
<g clip-path="url(#clip28)" clip-rule="nonzero">
<g clip-path="url(#clip29)" clip-rule="nonzero">
<path style=" stroke:none;fill-rule:nonzero;fill:rgb(71.369934%,5.099487%,87.059021%);fill-opacity:1;" d="M -427.601562 -442.828125 L 524.203125 562.148438 L 722.371094 -95.859375 Z M -427.601562 -442.828125 "/>
</g>
</g>
</g>
</g>
<g clip-path="url(#clip30)" clip-rule="nonzero">
<path style=" stroke:none;fill-rule:nonzero;fill:rgb(1.179504%,59.609985%,61.959839%);fill-opacity:1;" d="M 5024.707031 -572.816406 C 5011.089844 -572.816406 4997.484375 -572.484375 4983.886719 -571.816406 C 4970.289062 -571.148438 4956.714844 -570.144531 4943.164062 -568.8125 C 4929.613281 -567.476562 4916.105469 -565.8125 4902.636719 -563.8125 C 4889.171875 -561.816406 4875.761719 -559.488281 4862.40625 -556.832031 C 4849.054688 -554.175781 4835.773438 -551.195312 4822.566406 -547.886719 C 4809.359375 -544.578125 4796.242188 -540.945312 4783.214844 -536.996094 C 4770.183594 -533.042969 4757.261719 -528.773438 4744.441406 -524.1875 C 4731.621094 -519.601562 4718.921875 -514.703125 4706.34375 -509.492188 C 4693.765625 -504.28125 4681.324219 -498.765625 4669.015625 -492.945312 C 4656.707031 -487.121094 4644.550781 -481.003906 4632.542969 -474.585938 C 4620.535156 -468.167969 4608.691406 -461.457031 4597.015625 -454.460938 C 4585.335938 -447.460938 4573.835938 -440.179688 4562.515625 -432.613281 C 4551.195312 -425.050781 4540.070312 -417.210938 4529.132812 -409.101562 C 4518.199219 -400.992188 4507.46875 -392.617188 4496.941406 -383.980469 C 4486.417969 -375.34375 4476.113281 -366.453125 4466.023438 -357.308594 C 4455.9375 -348.167969 4446.078125 -338.78125 4436.453125 -329.152344 C 4426.824219 -319.527344 4417.4375 -309.667969 4408.296875 -299.582031 C 4399.152344 -289.492188 4390.261719 -279.1875 4381.625 -268.664062 C 4372.988281 -258.136719 4364.613281 -247.40625 4356.503906 -236.472656 C 4348.394531 -225.535156 4340.554688 -214.410156 4332.992188 -203.089844 C 4325.429688 -191.769531 4318.144531 -180.269531 4311.148438 -168.589844 C 4304.148438 -156.914062 4297.4375 -145.070312 4291.019531 -133.0625 C 4284.601562 -121.054688 4278.484375 -108.898438 4272.660156 -96.589844 C 4266.839844 -84.28125 4261.324219 -71.839844 4256.113281 -59.261719 C 4250.90625 -46.683594 4246.007812 -33.984375 4241.417969 -21.164062 C 4236.832031 -8.34375 4232.5625 4.578125 4228.609375 17.605469 C 4224.660156 30.636719 4221.027344 43.753906 4217.71875 56.960938 C 4214.410156 70.167969 4211.429688 83.449219 4208.773438 96.800781 C 4206.117188 110.15625 4203.789062 123.566406 4201.792969 137.03125 C 4199.796875 150.5 4198.128906 164.007812 4196.792969 177.558594 C 4195.460938 191.105469 4194.457031 204.679688 4193.789062 218.28125 C 4193.121094 231.878906 4192.789062 245.484375 4192.789062 259.101562 C 4192.789062 272.714844 4193.121094 286.320312 4193.789062 299.921875 C 4194.457031 313.519531 4195.460938 327.09375 4196.792969 340.640625 C 4198.128906 354.191406 4199.796875 367.699219 4201.792969 381.167969 C 4203.789062 394.636719 4206.117188 408.046875 4208.773438 421.398438 C 4211.429688 434.753906 4214.410156 448.03125 4217.71875 461.238281 C 4221.027344 474.445312 4224.660156 487.5625 4228.609375 500.59375 C 4232.5625 513.621094 4236.832031 526.546875 4241.417969 539.363281 C 4246.007812 552.183594 4250.90625 564.882812 4256.113281 577.460938 C 4261.324219 590.039062 4266.839844 602.484375 4272.660156 614.789062 C 4278.484375 627.097656 4284.601562 639.253906 4291.019531 651.261719 C 4297.4375 663.269531 4304.148438 675.113281 4311.148438 686.789062 C 4318.144531 698.46875 4325.429688 709.96875 4332.992188 721.289062 C 4340.554688 732.609375 4348.394531 743.738281 4356.503906 754.671875 C 4364.613281 765.609375 4372.988281 776.339844 4381.625 786.863281 C 4390.261719 797.386719 4399.152344 807.695312 4408.296875 817.78125 C 4417.4375 827.871094 4426.824219 837.726562 4436.453125 847.355469 C 4446.078125 856.980469 4455.9375 866.367188 4466.023438 875.511719 C 4476.113281 884.652344 4486.417969 893.542969 4496.941406 902.179688 C 4507.46875 910.816406 4518.199219 919.191406 4529.132812 927.300781 C 4540.070312 935.414062 4551.195312 943.25 4562.515625 950.8125 C 4573.835938 958.378906 4585.335938 965.660156 4597.015625 972.660156 C 4608.691406 979.660156 4620.535156 986.367188 4632.542969 992.785156 C 4644.550781 999.203125 4656.707031 1005.324219 4669.015625 1011.144531 C 4681.324219 1016.964844 4693.765625 1022.480469 4706.34375 1027.691406 C 4718.921875 1032.902344 4731.621094 1037.800781 4744.441406 1042.386719 C 4757.261719 1046.972656 4770.183594 1051.242188 4783.214844 1055.195312 C 4796.242188 1059.148438 4809.359375 1062.777344 4822.566406 1066.085938 C 4835.773438 1069.394531 4849.054688 1072.375 4862.40625 1075.03125 C 4875.761719 1077.6875 4889.171875 1080.015625 4902.636719 1082.011719 C 4916.105469 1084.011719 4929.613281 1085.675781 4943.164062 1087.011719 C 4956.714844 1088.347656 4970.289062 1089.347656 4983.886719 1090.015625 C 4997.484375 1090.683594 5011.089844 1091.015625 5024.707031 1091.015625 C 5038.320312 1091.015625 5051.925781 1090.683594 5065.527344 1090.015625 C 5079.125 1089.347656 5092.699219 1088.347656 5106.246094 1087.011719 C 5119.796875 1085.675781 5133.304688 1084.011719 5146.773438 1082.011719 C 5160.242188 1080.015625 5173.652344 1077.6875 5187.003906 1075.03125 C 5200.359375 1072.375 5213.636719 1069.394531 5226.84375 1066.085938 C 5240.050781 1062.777344 5253.167969 1059.148438 5266.199219 1055.195312 C 5279.226562 1051.242188 5292.152344 1046.972656 5304.96875 1042.386719 C 5317.789062 1037.800781 5330.488281 1032.902344 5343.066406 1027.691406 C 5355.644531 1022.480469 5368.089844 1016.964844 5380.394531 1011.144531 C 5392.703125 1005.324219 5404.863281 999.203125 5416.867188 992.785156 C 5428.875 986.367188 5440.71875 979.660156 5452.398438 972.660156 C 5464.074219 965.660156 5475.574219 958.378906 5486.894531 950.8125 C 5498.214844 943.25 5509.34375 935.414062 5520.277344 927.300781 C 5531.214844 919.191406 5541.945312 910.816406 5552.46875 902.179688 C 5562.992188 893.542969 5573.300781 884.652344 5583.386719 875.511719 C 5593.476562 866.367188 5603.332031 856.980469 5612.960938 847.355469 C 5622.585938 837.726562 5631.972656 827.871094 5641.117188 817.78125 C 5650.257812 807.695312 5659.148438 797.386719 5667.785156 786.863281 C 5676.421875 776.339844 5684.796875 765.609375 5692.90625 754.671875 C 5701.019531 743.738281 5708.855469 732.609375 5716.417969 721.289062 C 5723.984375 709.96875 5731.265625 698.46875 5738.265625 686.789062 C 5745.265625 675.113281 5751.972656 663.269531 5758.390625 651.261719 C 5764.808594 639.253906 5770.929688 627.097656 5776.75 614.789062 C 5782.570312 602.484375 5788.085938 590.039062 5793.296875 577.460938 C 5798.507812 564.882812 5803.40625 552.183594 5807.992188 539.363281 C 5812.578125 526.546875 5816.847656 513.621094 5820.800781 500.59375 C 5824.753906 487.5625 5828.382812 474.445312 5831.691406 461.238281 C 5835 448.03125 5837.980469 434.753906 5840.636719 421.398438 C 5843.292969 408.046875 5845.621094 394.636719 5847.617188 381.167969 C 5849.617188 367.699219 5851.28125 354.191406 5852.617188 340.640625 C 5853.953125 327.09375 5854.953125 313.519531 5855.621094 299.921875 C 5856.289062 286.320312 5856.625 272.714844 5856.625 259.101562 C 5856.625 245.484375 5856.289062 231.878906 5855.621094 218.28125 C 5854.953125 204.679688 5853.953125 191.105469 5852.617188 177.558594 C 5851.28125 164.007812 5849.617188 150.5 5847.617188 137.03125 C 5845.621094 123.566406 5843.292969 110.15625 5840.636719 96.800781 C 5837.980469 83.449219 5835 70.167969 5831.691406 56.960938 C 5828.382812 43.753906 5824.753906 30.636719 5820.800781 17.605469 C 5816.847656 4.578125 5812.578125 -8.34375 5807.992188 -21.164062 C 5803.40625 -33.984375 5798.507812 -46.683594 5793.296875 -59.261719 C 5788.085938 -71.839844 5782.570312 -84.28125 5776.75 -96.589844 C 5770.929688 -108.898438 5764.808594 -121.054688 5758.390625 -133.0625 C 5751.972656 -145.070312 5745.265625 -156.914062 5738.265625 -168.589844 C 5731.265625 -180.269531 5723.984375 -191.769531 5716.417969 -203.089844 C 5708.855469 -214.410156 5701.019531 -225.535156 5692.90625 -236.472656 C 5684.796875 -247.40625 5676.421875 -258.136719 5667.785156 -268.664062 C 5659.148438 -279.1875 5650.257812 -289.492188 5641.117188 -299.582031 C 5631.972656 -309.667969 5622.585938 -319.527344 5612.960938 -329.152344 C 5603.332031 -338.78125 5593.476562 -348.167969 5583.386719 -357.308594 C 5573.300781 -366.453125 5562.992188 -375.34375 5552.46875 -383.980469 C 5541.945312 -392.617188 5531.214844 -400.992188 5520.277344 -409.101562 C 5509.34375 -417.210938 5498.214844 -425.050781 5486.894531 -432.613281 C 5475.574219 -440.179688 5464.074219 -447.460938 5452.398438 -454.460938 C 5440.71875 -461.457031 5428.875 -468.167969 5416.867188 -474.585938 C 5404.863281 -481.003906 5392.703125 -487.121094 5380.394531 -492.945312 C 5368.089844 -498.765625 5355.644531 -504.28125 5343.066406 -509.492188 C 5330.488281 -514.703125 5317.789062 -519.601562 5304.96875 -524.1875 C 5292.152344 -528.773438 5279.226562 -533.042969 5266.199219 -536.996094 C 5253.171875 -540.945312 5240.050781 -544.578125 5226.84375 -547.886719 C 5213.636719 -551.195312 5200.359375 -554.175781 5187.003906 -556.832031 C 5173.652344 -559.488281 5160.242188 -561.816406 5146.773438 -563.8125 C 5133.304688 -565.8125 5119.796875 -567.476562 5106.246094 -568.8125 C 5092.699219 -570.144531 5079.125 -571.148438 5065.527344 -571.816406 C 5051.925781 -572.484375 5038.320312 -572.816406 5024.707031 -572.816406 Z M 5024.707031 -572.816406 "/>
</g>
<g clip-path="url(#clip31)" clip-rule="nonzero">
<path style=" stroke:none;fill-rule:nonzero;fill:rgb(64.309692%,14.509583%,66.668701%);fill-opacity:1;" d="M 5090.28125 -578.160156 C 5078.472656 -578.160156 5066.667969 -577.875 5054.871094 -577.304688 C 5043.074219 -576.734375 5031.300781 -575.878906 5019.546875 -574.738281 C 5007.792969 -573.597656 4996.074219 -572.175781 4984.390625 -570.46875 C 4972.707031 -568.761719 4961.074219 -566.777344 4949.488281 -564.507812 C 4937.90625 -562.238281 4926.382812 -559.691406 4914.929688 -556.867188 C 4903.472656 -554.039062 4892.089844 -550.9375 4880.789062 -547.5625 C 4869.488281 -544.1875 4858.273438 -540.539062 4847.15625 -536.621094 C 4836.035156 -532.707031 4825.019531 -528.519531 4814.105469 -524.070312 C 4803.195312 -519.621094 4792.398438 -514.910156 4781.722656 -509.9375 C 4771.046875 -504.964844 4760.5 -499.738281 4750.082031 -494.257812 C 4739.667969 -488.773438 4729.394531 -483.042969 4719.261719 -477.066406 C 4709.132812 -471.085938 4699.15625 -464.867188 4689.335938 -458.40625 C 4679.515625 -451.945312 4669.863281 -445.25 4660.375 -438.324219 C 4650.890625 -431.394531 4641.582031 -424.242188 4632.449219 -416.867188 C 4623.320312 -409.488281 4614.378906 -401.894531 4605.628906 -394.085938 C 4596.878906 -386.277344 4588.328125 -378.257812 4579.976562 -370.035156 C 4571.625 -361.8125 4563.480469 -353.394531 4555.550781 -344.777344 C 4547.617188 -336.160156 4539.90625 -327.355469 4532.414062 -318.367188 C 4524.921875 -309.378906 4517.65625 -300.214844 4510.621094 -290.871094 C 4503.585938 -281.53125 4496.785156 -272.027344 4490.222656 -262.359375 C 4483.664062 -252.6875 4477.34375 -242.867188 4471.273438 -232.890625 C 4465.203125 -222.917969 4459.382812 -212.800781 4453.8125 -202.546875 C 4448.246094 -192.289062 4442.9375 -181.90625 4437.886719 -171.394531 C 4432.839844 -160.878906 4428.054688 -150.25 4423.535156 -139.507812 C 4419.011719 -128.765625 4414.765625 -117.917969 4410.785156 -106.96875 C 4406.804688 -96.019531 4403.101562 -84.980469 4399.675781 -73.851562 C 4396.246094 -62.722656 4393.097656 -51.519531 4390.226562 -40.238281 C 4387.355469 -28.957031 4384.769531 -17.613281 4382.464844 -6.207031 C 4380.160156 5.199219 4378.140625 16.652344 4376.410156 28.15625 C 4374.675781 39.660156 4373.230469 51.199219 4372.074219 62.769531 C 4370.914062 74.34375 4370.046875 85.9375 4369.46875 97.554688 C 4368.886719 109.167969 4368.597656 120.789062 4368.597656 132.417969 C 4368.597656 144.046875 4368.886719 155.671875 4369.46875 167.285156 C 4370.046875 178.902344 4370.914062 190.496094 4372.074219 202.070312 C 4373.230469 213.640625 4374.675781 225.179688 4376.410156 236.683594 C 4378.140625 248.1875 4380.160156 259.640625 4382.464844 271.046875 C 4384.769531 282.453125 4387.355469 293.796875 4390.226562 305.078125 C 4393.097656 316.355469 4396.246094 327.5625 4399.675781 338.691406 C 4403.101562 349.816406 4406.804688 360.855469 4410.785156 371.804688 C 4414.765625 382.757812 4419.011719 393.601562 4423.535156 404.347656 C 4428.054688 415.089844 4432.839844 425.71875 4437.886719 436.230469 C 4442.9375 446.746094 4448.246094 457.128906 4453.8125 467.382812 C 4459.382812 477.640625 4465.203125 487.757812 4471.273438 497.730469 C 4477.34375 507.707031 4483.664062 517.527344 4490.222656 527.195312 C 4496.785156 536.867188 4503.585938 546.371094 4510.621094 555.710938 C 4517.65625 565.050781 4524.921875 574.21875 4532.414062 583.207031 C 4539.90625 592.195312 4547.617188 601 4555.550781 609.617188 C 4563.480469 618.230469 4571.625 626.652344 4579.976562 634.875 C 4588.328125 643.097656 4596.878906 651.113281 4605.628906 658.925781 C 4614.378906 666.734375 4623.320312 674.328125 4632.449219 681.707031 C 4641.582031 689.082031 4650.890625 696.234375 4660.375 703.164062 C 4669.863281 710.089844 4679.515625 716.785156 4689.335938 723.246094 C 4699.15625 729.707031 4709.132812 735.925781 4719.261719 741.902344 C 4729.394531 747.882812 4739.667969 753.613281 4750.082031 759.09375 C 4760.5 764.578125 4771.046875 769.804688 4781.722656 774.777344 C 4792.398438 779.75 4803.195312 784.460938 4814.105469 788.910156 C 4825.019531 793.359375 4836.035156 797.542969 4847.15625 801.460938 C 4858.273438 805.378906 4869.488281 809.027344 4880.789062 812.402344 C 4892.089844 815.777344 4903.472656 818.878906 4914.929688 821.703125 C 4926.382812 824.53125 4937.90625 827.078125 4949.488281 829.347656 C 4961.074219 831.613281 4972.707031 833.601562 4984.390625 835.308594 C 4996.074219 837.015625 5007.792969 838.4375 5019.546875 839.578125 C 5031.300781 840.71875 5043.074219 841.574219 5054.871094 842.144531 C 5066.667969 842.714844 5078.472656 843 5090.28125 843 C 5102.09375 843 5113.898438 842.714844 5125.695312 842.144531 C 5137.492188 841.574219 5149.265625 840.71875 5161.019531 839.578125 C 5172.773438 838.4375 5184.492188 837.015625 5196.175781 835.308594 C 5207.859375 833.601562 5219.492188 831.613281 5231.078125 829.347656 C 5242.660156 827.078125 5254.179688 824.53125 5265.636719 821.703125 C 5277.09375 818.878906 5288.472656 815.777344 5299.777344 812.402344 C 5311.078125 809.027344 5322.289062 805.378906 5333.410156 801.460938 C 5344.53125 797.542969 5355.546875 793.359375 5366.460938 788.910156 C 5377.371094 784.460938 5388.164062 779.75 5398.84375 774.777344 C 5409.519531 769.804688 5420.066406 764.578125 5430.484375 759.09375 C 5440.898438 753.613281 5451.171875 747.882812 5461.300781 741.902344 C 5471.433594 735.925781 5481.410156 729.707031 5491.230469 723.246094 C 5501.050781 716.785156 5510.703125 710.089844 5520.191406 703.164062 C 5529.675781 696.234375 5538.984375 689.082031 5548.113281 681.707031 C 5557.246094 674.328125 5566.183594 666.734375 5574.9375 658.925781 C 5583.6875 651.113281 5592.238281 643.097656 5600.589844 634.875 C 5608.941406 626.652344 5617.082031 618.230469 5625.015625 609.617188 C 5632.945312 601 5640.660156 592.195312 5648.152344 583.207031 C 5655.644531 574.21875 5662.910156 565.050781 5669.945312 555.710938 C 5676.980469 546.371094 5683.78125 536.867188 5690.339844 527.195312 C 5696.902344 517.527344 5703.21875 507.707031 5709.292969 497.730469 C 5715.363281 487.757812 5721.183594 477.640625 5726.75 467.382812 C 5732.320312 457.128906 5737.628906 446.746094 5742.675781 436.230469 C 5747.726562 425.71875 5752.511719 415.089844 5757.03125 404.347656 C 5761.550781 393.601562 5765.800781 382.757812 5769.78125 371.808594 C 5773.757812 360.855469 5777.464844 349.816406 5780.890625 338.691406 C 5784.320312 327.5625 5787.46875 316.355469 5790.339844 305.078125 C 5793.207031 293.796875 5795.796875 282.453125 5798.101562 271.046875 C 5800.402344 259.640625 5802.421875 248.1875 5804.15625 236.683594 C 5805.890625 225.179688 5807.335938 213.640625 5808.492188 202.070312 C 5809.648438 190.496094 5810.519531 178.902344 5811.097656 167.285156 C 5811.675781 155.671875 5811.96875 144.046875 5811.96875 132.417969 C 5811.96875 120.789062 5811.675781 109.167969 5811.097656 97.554688 C 5810.519531 85.9375 5809.648438 74.34375 5808.492188 62.769531 C 5807.335938 51.199219 5805.890625 39.660156 5804.15625 28.15625 C 5802.421875 16.652344 5800.402344 5.199219 5798.101562 -6.207031 C 5795.796875 -17.613281 5793.207031 -28.957031 5790.339844 -40.238281 C 5787.46875 -51.519531 5784.320312 -62.722656 5780.890625 -73.851562 C 5777.464844 -84.980469 5773.757812 -96.019531 5769.78125 -106.96875 C 5765.800781 -117.917969 5761.550781 -128.765625 5757.03125 -139.507812 C 5752.511719 -150.25 5747.726562 -160.878906 5742.675781 -171.394531 C 5737.628906 -181.90625 5732.320312 -192.289062 5726.75 -202.546875 C 5721.183594 -212.800781 5715.363281 -222.917969 5709.292969 -232.890625 C 5703.21875 -242.867188 5696.902344 -252.6875 5690.339844 -262.359375 C 5683.78125 -272.027344 5676.980469 -281.53125 5669.945312 -290.871094 C 5662.910156 -300.214844 5655.644531 -309.378906 5648.152344 -318.367188 C 5640.660156 -327.355469 5632.945312 -336.160156 5625.015625 -344.777344 C 5617.082031 -353.394531 5608.941406 -361.8125 5600.589844 -370.035156 C 5592.238281 -378.257812 5583.6875 -386.277344 5574.9375 -394.085938 C 5566.183594 -401.894531 5557.246094 -409.488281 5548.113281 -416.867188 C 5538.984375 -424.242188 5529.675781 -431.394531 5520.191406 -438.324219 C 5510.703125 -445.25 5501.050781 -451.945312 5491.230469 -458.40625 C 5481.410156 -464.867188 5471.433594 -471.085938 5461.300781 -477.066406 C 5451.171875 -483.042969 5440.898438 -488.773438 5430.480469 -494.257812 C 5420.066406 -499.738281 5409.519531 -504.964844 5398.84375 -509.9375 C 5388.164062 -514.910156 5377.371094 -519.621094 5366.460938 -524.070312 C 5355.546875 -528.519531 5344.53125 -532.707031 5333.410156 -536.621094 C 5322.289062 -540.539062 5311.078125 -544.1875 5299.777344 -547.5625 C 5288.472656 -550.9375 5277.09375 -554.039062 5265.636719 -556.867188 C 5254.179688 -559.691406 5242.660156 -562.238281 5231.078125 -564.507812 C 5219.492188 -566.777344 5207.859375 -568.761719 5196.175781 -570.46875 C 5184.492188 -572.175781 5172.773438 -573.597656 5161.019531 -574.738281 C 5149.265625 -575.878906 5137.492188 -576.734375 5125.695312 -577.304688 C 5113.898438 -577.875 5102.09375 -578.160156 5090.28125 -578.160156 Z M 5090.28125 -578.160156 "/>
</g>
<g clip-path="url(#clip32)" clip-rule="nonzero">
<path style=" stroke:none;fill-rule:nonzero;fill:rgb(78.819275%,88.62915%,39.608765%);fill-opacity:1;" d="M 5090.285156 -439.589844 C 5082 -439.589844 5073.71875 -439.386719 5065.445312 -438.980469 C 5057.167969 -438.574219 5048.910156 -437.964844 5040.664062 -437.152344 C 5032.421875 -436.34375 5024.199219 -435.328125 5016.003906 -434.113281 C 5007.8125 -432.898438 4999.652344 -431.480469 4991.523438 -429.863281 C 4983.398438 -428.25 4975.320312 -426.433594 4967.28125 -424.421875 C 4959.246094 -422.40625 4951.265625 -420.199219 4943.335938 -417.792969 C 4935.40625 -415.390625 4927.542969 -412.792969 4919.742188 -410 C 4911.941406 -407.210938 4904.214844 -404.230469 4896.5625 -401.058594 C 4888.90625 -397.886719 4881.335938 -394.53125 4873.847656 -390.988281 C 4866.359375 -387.449219 4858.960938 -383.722656 4851.652344 -379.816406 C 4844.347656 -375.914062 4837.140625 -371.832031 4830.035156 -367.570312 C 4822.929688 -363.3125 4815.933594 -358.882812 4809.042969 -354.277344 C 4802.15625 -349.675781 4795.382812 -344.90625 4788.730469 -339.972656 C 4782.074219 -335.035156 4775.546875 -329.941406 4769.140625 -324.6875 C 4762.738281 -319.429688 4756.46875 -314.019531 4750.328125 -308.457031 C 4744.191406 -302.894531 4738.191406 -297.183594 4732.332031 -291.324219 C 4726.476562 -285.464844 4720.765625 -279.46875 4715.199219 -273.328125 C 4709.636719 -267.191406 4704.226562 -260.917969 4698.972656 -254.515625 C 4693.714844 -248.109375 4688.621094 -241.582031 4683.683594 -234.925781 C 4678.75 -228.273438 4673.980469 -221.503906 4669.378906 -214.613281 C 4664.777344 -207.726562 4660.34375 -200.726562 4656.085938 -193.621094 C 4651.828125 -186.515625 4647.746094 -179.308594 4643.839844 -172.003906 C 4639.933594 -164.695312 4636.210938 -157.300781 4632.667969 -149.808594 C 4629.125 -142.320312 4625.769531 -134.75 4622.597656 -127.09375 C 4619.429688 -119.441406 4616.449219 -111.714844 4613.65625 -103.914062 C 4610.867188 -96.113281 4608.269531 -88.25 4605.863281 -80.320312 C 4603.457031 -72.394531 4601.25 -64.410156 4599.238281 -56.375 C 4597.222656 -48.339844 4595.410156 -40.257812 4593.792969 -32.132812 C 4592.175781 -24.007812 4590.761719 -15.847656 4589.542969 -7.652344 C 4588.328125 0.542969 4587.316406 8.761719 4586.503906 17.007812 C 4585.691406 25.253906 4585.082031 33.511719 4584.675781 41.785156 C 4584.269531 50.0625 4584.066406 58.339844 4584.066406 66.625 C 4584.066406 74.910156 4584.269531 83.191406 4584.675781 91.464844 C 4585.082031 99.738281 4585.691406 108 4586.503906 116.242188 C 4587.316406 124.488281 4588.328125 132.707031 4589.542969 140.902344 C 4590.761719 149.097656 4592.175781 157.257812 4593.792969 165.382812 C 4595.410156 173.507812 4597.222656 181.589844 4599.238281 189.625 C 4601.25 197.664062 4603.457031 205.644531 4605.863281 213.574219 C 4608.269531 221.5 4610.867188 229.363281 4613.65625 237.164062 C 4616.449219 244.964844 4619.429688 252.691406 4622.597656 260.347656 C 4625.769531 268 4629.125 275.574219 4632.667969 283.0625 C 4636.210938 290.550781 4639.933594 297.949219 4643.839844 305.253906 C 4647.746094 312.5625 4651.828125 319.769531 4656.085938 326.875 C 4660.34375 333.980469 4664.777344 340.976562 4669.378906 347.863281 C 4673.980469 354.753906 4678.75 361.523438 4683.683594 368.179688 C 4688.621094 374.832031 4693.714844 381.363281 4698.972656 387.765625 C 4704.226562 394.171875 4709.636719 400.441406 4715.199219 406.582031 C 4720.765625 412.71875 4726.476562 418.71875 4732.332031 424.574219 C 4738.191406 430.433594 4744.191406 436.144531 4750.328125 441.707031 C 4756.46875 447.273438 4762.738281 452.679688 4769.140625 457.9375 C 4775.546875 463.191406 4782.074219 468.289062 4788.730469 473.222656 C 4795.382812 478.160156 4802.15625 482.925781 4809.042969 487.53125 C 4815.933594 492.132812 4822.929688 496.5625 4830.035156 500.824219 C 4837.140625 505.082031 4844.347656 509.164062 4851.652344 513.070312 C 4858.960938 516.976562 4866.359375 520.699219 4873.847656 524.242188 C 4881.335938 527.78125 4888.90625 531.140625 4896.5625 534.308594 C 4904.214844 537.480469 4911.941406 540.460938 4919.742188 543.25 C 4927.542969 546.042969 4935.40625 548.640625 4943.335938 551.046875 C 4951.265625 553.449219 4959.246094 555.660156 4967.28125 557.671875 C 4975.320312 559.683594 4983.398438 561.5 4991.523438 563.117188 C 4999.652344 564.734375 5007.8125 566.148438 5016.003906 567.363281 C 5024.199219 568.578125 5032.421875 569.59375 5040.664062 570.40625 C 5048.910156 571.21875 5057.167969 571.828125 5065.445312 572.234375 C 5073.71875 572.640625 5082 572.84375 5090.285156 572.84375 C 5098.566406 572.84375 5106.847656 572.640625 5115.121094 572.234375 C 5123.398438 571.828125 5131.65625 571.21875 5139.902344 570.40625 C 5148.144531 569.59375 5156.367188 568.578125 5164.5625 567.363281 C 5172.753906 566.148438 5180.914062 564.734375 5189.042969 563.117188 C 5197.167969 561.5 5205.246094 559.683594 5213.285156 557.671875 C 5221.320312 555.660156 5229.300781 553.449219 5237.230469 551.046875 C 5245.160156 548.640625 5253.023438 546.042969 5260.824219 543.25 C 5268.625 540.460938 5276.351562 537.480469 5284.003906 534.308594 C 5291.660156 531.140625 5299.230469 527.78125 5306.71875 524.242188 C 5314.207031 520.699219 5321.605469 516.976562 5328.914062 513.070312 C 5336.21875 509.164062 5343.425781 505.082031 5350.53125 500.824219 C 5357.636719 496.5625 5364.632812 492.132812 5371.523438 487.53125 C 5378.410156 482.925781 5385.183594 478.160156 5391.835938 473.222656 C 5398.492188 468.289062 5405.019531 463.191406 5411.425781 457.9375 C 5417.828125 452.679688 5424.101562 447.273438 5430.238281 441.707031 C 5436.375 436.144531 5442.375 430.433594 5448.234375 424.574219 C 5454.089844 418.71875 5459.800781 412.71875 5465.367188 406.582031 C 5470.929688 400.441406 5476.339844 394.171875 5481.59375 387.765625 C 5486.851562 381.363281 5491.945312 374.832031 5496.878906 368.179688 C 5501.816406 361.523438 5506.585938 354.753906 5511.1875 347.863281 C 5515.789062 340.976562 5520.222656 333.980469 5524.480469 326.875 C 5528.738281 319.769531 5532.820312 312.5625 5536.726562 305.253906 C 5540.632812 297.949219 5544.355469 290.550781 5547.898438 283.0625 C 5551.441406 275.574219 5554.796875 268 5557.96875 260.347656 C 5561.136719 252.691406 5564.117188 244.964844 5566.910156 237.164062 C 5569.699219 229.363281 5572.296875 221.5 5574.703125 213.574219 C 5577.109375 205.644531 5579.316406 197.664062 5581.328125 189.625 C 5583.34375 181.589844 5585.15625 173.507812 5586.773438 165.382812 C 5588.390625 157.257812 5589.804688 149.097656 5591.023438 140.902344 C 5592.238281 132.707031 5593.25 124.488281 5594.0625 116.242188 C 5594.875 108 5595.484375 99.738281 5595.890625 91.464844 C 5596.296875 83.191406 5596.5 74.910156 5596.5 66.625 C 5596.5 58.339844 5596.296875 50.0625 5595.890625 41.785156 C 5595.484375 33.511719 5594.875 25.253906 5594.0625 17.007812 C 5593.25 8.761719 5592.238281 0.542969 5591.023438 -7.652344 C 5589.804688 -15.847656 5588.390625 -24.007812 5586.773438 -32.132812 C 5585.15625 -40.257812 5583.34375 -48.339844 5581.328125 -56.375 C 5579.316406 -64.410156 5577.109375 -72.394531 5574.703125 -80.320312 C 5572.296875 -88.25 5569.699219 -96.113281 5566.910156 -103.914062 C 5564.117188 -111.714844 5561.136719 -119.441406 5557.96875 -127.09375 C 5554.796875 -134.75 5551.441406 -142.320312 5547.898438 -149.808594 C 5544.355469 -157.300781 5540.632812 -164.695312 5536.726562 -172.003906 C 5532.820312 -179.308594 5528.738281 -186.515625 5524.480469 -193.621094 C 5520.222656 -200.726562 5515.789062 -207.726562 5511.1875 -214.613281 C 5506.585938 -221.503906 5501.816406 -228.273438 5496.878906 -234.925781 C 5491.945312 -241.582031 5486.851562 -248.109375 5481.59375 -254.515625 C 5476.339844 -260.917969 5470.929688 -267.191406 5465.367188 -273.328125 C 5459.800781 -279.46875 5454.089844 -285.464844 5448.234375 -291.324219 C 5442.375 -297.183594 5436.375 -302.894531 5430.238281 -308.457031 C 5424.101562 -314.019531 5417.828125 -319.429688 5411.425781 -324.6875 C 5405.019531 -329.941406 5398.492188 -335.035156 5391.835938 -339.972656 C 5385.183594 -344.90625 5378.410156 -349.675781 5371.523438 -354.277344 C 5364.632812 -358.882812 5357.636719 -363.3125 5350.53125 -367.570312 C 5343.425781 -371.832031 5336.21875 -375.914062 5328.914062 -379.816406 C 5321.605469 -383.722656 5314.207031 -387.449219 5306.71875 -390.988281 C 5299.230469 -394.53125 5291.660156 -397.886719 5284.003906 -401.058594 C 5276.351562 -404.230469 5268.625 -407.210938 5260.824219 -410 C 5253.023438 -412.792969 5245.160156 -415.390625 5237.230469 -417.792969 C 5229.300781 -420.199219 5221.320312 -422.40625 5213.285156 -424.421875 C 5205.246094 -426.433594 5197.167969 -428.25 5189.042969 -429.863281 C 5180.914062 -431.480469 5172.753906 -432.898438 5164.5625 -434.113281 C 5156.367188 -435.328125 5148.144531 -436.34375 5139.902344 -437.152344 C 5131.65625 -437.964844 5123.398438 -438.574219 5115.121094 -438.980469 C 5106.847656 -439.386719 5098.566406 -439.589844 5090.285156 -439.589844 Z M 5090.285156 -439.589844 "/>
</g>
<g clip-path="url(#clip33)" clip-rule="nonzero">
<path style=" stroke:none;fill-rule:nonzero;fill:rgb(79.60968%,42.349243%,90.19928%);fill-opacity:1;" d="M 5352.207031 -726.40625 C 5342.121094 -726.40625 5332.039062 -726.160156 5321.964844 -725.664062 C 5311.890625 -725.167969 5301.835938 -724.425781 5291.800781 -723.4375 C 5281.761719 -722.449219 5271.753906 -721.214844 5261.777344 -719.734375 C 5251.800781 -718.257812 5241.867188 -716.53125 5231.972656 -714.566406 C 5222.082031 -712.597656 5212.242188 -710.386719 5202.460938 -707.9375 C 5192.675781 -705.484375 5182.957031 -702.796875 5173.308594 -699.871094 C 5163.65625 -696.941406 5154.082031 -693.777344 5144.585938 -690.378906 C 5135.089844 -686.984375 5125.679688 -683.355469 5116.363281 -679.496094 C 5107.042969 -675.632812 5097.828125 -671.546875 5088.707031 -667.234375 C 5079.589844 -662.925781 5070.585938 -658.390625 5061.691406 -653.636719 C 5052.792969 -648.882812 5044.023438 -643.910156 5035.371094 -638.726562 C 5026.71875 -633.542969 5018.199219 -628.148438 5009.816406 -622.542969 C 5001.429688 -616.941406 4993.183594 -611.132812 4985.082031 -605.125 C 4976.984375 -599.117188 4969.035156 -592.914062 4961.238281 -586.515625 C 4953.441406 -580.117188 4945.804688 -573.53125 4938.332031 -566.757812 C 4930.859375 -559.984375 4923.554688 -553.03125 4916.425781 -545.898438 C 4909.292969 -538.769531 4902.339844 -531.464844 4895.566406 -523.992188 C 4888.792969 -516.519531 4882.207031 -508.882812 4875.808594 -501.085938 C 4869.410156 -493.289062 4863.207031 -485.34375 4857.199219 -477.242188 C 4851.191406 -469.140625 4845.382812 -460.894531 4839.78125 -452.507812 C 4834.179688 -444.125 4828.785156 -435.605469 4823.597656 -426.953125 C 4818.414062 -418.304688 4813.441406 -409.53125 4808.6875 -400.632812 C 4803.933594 -391.738281 4799.402344 -382.734375 4795.089844 -373.617188 C 4790.777344 -364.496094 4786.691406 -355.28125 4782.832031 -345.960938 C 4778.96875 -336.644531 4775.339844 -327.234375 4771.945312 -317.738281 C 4768.546875 -308.242188 4765.382812 -298.667969 4762.457031 -289.015625 C 4759.527344 -279.367188 4756.839844 -269.648438 4754.386719 -259.863281 C 4751.9375 -250.082031 4749.726562 -240.242188 4747.761719 -230.351562 C 4745.792969 -220.457031 4744.066406 -210.523438 4742.589844 -200.546875 C 4741.109375 -190.570312 4739.875 -180.5625 4738.886719 -170.523438 C 4737.898438 -160.488281 4737.15625 -150.433594 4736.660156 -140.359375 C 4736.164062 -130.285156 4735.917969 -120.203125 4735.917969 -110.117188 C 4735.917969 -100.03125 4736.164062 -89.953125 4736.660156 -79.878906 C 4737.15625 -69.804688 4737.898438 -59.75 4738.886719 -49.710938 C 4739.875 -39.675781 4741.109375 -29.667969 4742.589844 -19.691406 C 4744.066406 -9.714844 4745.792969 0.222656 4747.761719 10.113281 C 4749.726562 20.003906 4751.9375 29.84375 4754.386719 39.628906 C 4756.839844 49.410156 4759.527344 59.128906 4762.457031 68.78125 C 4765.382812 78.433594 4768.546875 88.007812 4771.945312 97.503906 C 4775.339844 107 4778.96875 116.40625 4782.832031 125.722656 C 4786.691406 135.042969 4790.777344 144.261719 4795.089844 153.378906 C 4799.402344 162.496094 4803.933594 171.503906 4808.6875 180.398438 C 4813.441406 189.292969 4818.414062 198.066406 4823.597656 206.714844 C 4828.785156 215.367188 4834.179688 223.886719 4839.78125 232.273438 C 4845.382812 240.660156 4851.191406 248.902344 4857.199219 257.003906 C 4863.207031 265.105469 4869.410156 273.054688 4875.808594 280.851562 C 4882.207031 288.648438 4888.792969 296.28125 4895.566406 303.753906 C 4902.339844 311.226562 4909.292969 318.53125 4916.425781 325.664062 C 4923.554688 332.792969 4930.859375 339.746094 4938.332031 346.519531 C 4945.804688 353.292969 4953.441406 359.878906 4961.238281 366.277344 C 4969.035156 372.675781 4976.984375 378.878906 4985.082031 384.886719 C 4993.183594 390.898438 5001.429688 396.703125 5009.816406 402.304688 C 5018.199219 407.910156 5026.71875 413.304688 5035.371094 418.488281 C 5044.023438 423.675781 5052.792969 428.644531 5061.691406 433.398438 C 5070.585938 438.152344 5079.589844 442.6875 5088.707031 447 C 5097.828125 451.3125 5107.042969 455.398438 5116.363281 459.257812 C 5125.679688 463.117188 5135.089844 466.746094 5144.585938 470.144531 C 5154.082031 473.542969 5163.65625 476.703125 5173.308594 479.632812 C 5182.957031 482.558594 5192.675781 485.25 5202.460938 487.699219 C 5212.242188 490.152344 5222.082031 492.359375 5231.972656 494.328125 C 5241.867188 496.296875 5251.800781 498.019531 5261.777344 499.5 C 5271.753906 500.980469 5281.761719 502.214844 5291.800781 503.203125 C 5301.835938 504.191406 5311.890625 504.933594 5321.964844 505.425781 C 5332.039062 505.921875 5342.121094 506.167969 5352.207031 506.167969 C 5362.292969 506.167969 5372.371094 505.921875 5382.445312 505.425781 C 5392.519531 504.933594 5402.574219 504.191406 5412.613281 503.203125 C 5422.648438 502.214844 5432.65625 500.980469 5442.632812 499.5 C 5452.609375 498.019531 5462.546875 496.296875 5472.4375 494.328125 C 5482.328125 492.359375 5492.167969 490.152344 5501.953125 487.699219 C 5511.734375 485.25 5521.453125 482.558594 5531.105469 479.632812 C 5540.757812 476.703125 5550.332031 473.542969 5559.828125 470.144531 C 5569.324219 466.746094 5578.730469 463.117188 5588.050781 459.257812 C 5597.367188 455.398438 5606.585938 451.3125 5615.703125 447 C 5624.820312 442.6875 5633.828125 438.152344 5642.722656 433.398438 C 5651.617188 428.644531 5660.390625 423.675781 5669.042969 418.488281 C 5677.691406 413.304688 5686.210938 407.910156 5694.597656 402.304688 C 5702.984375 396.703125 5711.226562 390.898438 5719.328125 384.886719 C 5727.429688 378.878906 5735.378906 372.675781 5743.175781 366.277344 C 5750.972656 359.878906 5758.605469 353.292969 5766.078125 346.519531 C 5773.554688 339.746094 5780.855469 332.792969 5787.988281 325.664062 C 5795.121094 318.53125 5802.070312 311.226562 5808.84375 303.753906 C 5815.617188 296.28125 5822.203125 288.648438 5828.601562 280.851562 C 5835 273.054688 5841.203125 265.105469 5847.210938 257.003906 C 5853.222656 248.902344 5859.027344 240.660156 5864.628906 232.273438 C 5870.234375 223.886719 5875.628906 215.367188 5880.8125 206.714844 C 5886 198.066406 5890.96875 189.292969 5895.722656 180.398438 C 5900.476562 171.503906 5905.011719 162.496094 5909.324219 153.378906 C 5913.636719 144.261719 5917.722656 135.042969 5921.582031 125.722656 C 5925.441406 116.40625 5929.070312 107 5932.46875 97.503906 C 5935.867188 88.007812 5939.027344 78.433594 5941.957031 68.78125 C 5944.882812 59.128906 5947.574219 49.410156 5950.023438 39.628906 C 5952.476562 29.84375 5954.683594 20.003906 5956.652344 10.113281 C 5958.621094 0.222656 5960.34375 -9.714844 5961.824219 -19.691406 C 5963.304688 -29.667969 5964.539062 -39.675781 5965.527344 -49.710938 C 5966.515625 -59.75 5967.257812 -69.804688 5967.75 -79.878906 C 5968.246094 -89.953125 5968.492188 -100.03125 5968.492188 -110.117188 C 5968.492188 -120.203125 5968.246094 -130.285156 5967.75 -140.359375 C 5967.257812 -150.433594 5966.515625 -160.488281 5965.527344 -170.523438 C 5964.539062 -180.5625 5963.304688 -190.570312 5961.824219 -200.546875 C 5960.34375 -210.523438 5958.621094 -220.457031 5956.652344 -230.351562 C 5954.683594 -240.242188 5952.476562 -250.082031 5950.023438 -259.863281 C 5947.574219 -269.648438 5944.882812 -279.367188 5941.957031 -289.015625 C 5939.027344 -298.667969 5935.867188 -308.242188 5932.46875 -317.738281 C 5929.070312 -327.234375 5925.441406 -336.644531 5921.582031 -345.960938 C 5917.722656 -355.28125 5913.636719 -364.496094 5909.324219 -373.617188 C 5905.011719 -382.734375 5900.476562 -391.738281 5895.722656 -400.632812 C 5890.96875 -409.53125 5886 -418.304688 5880.8125 -426.953125 C 5875.628906 -435.605469 5870.234375 -444.125 5864.628906 -452.511719 C 5859.027344 -460.894531 5853.222656 -469.140625 5847.210938 -477.242188 C 5841.203125 -485.34375 5835 -493.289062 5828.601562 -501.085938 C 5822.203125 -508.882812 5815.617188 -516.519531 5808.84375 -523.992188 C 5802.070312 -531.464844 5795.121094 -538.769531 5787.988281 -545.898438 C 5780.855469 -553.03125 5773.554688 -559.984375 5766.078125 -566.757812 C 5758.605469 -573.53125 5750.972656 -580.117188 5743.175781 -586.515625 C 5735.378906 -592.914062 5727.429688 -599.117188 5719.328125 -605.125 C 5711.226562 -611.132812 5702.984375 -616.941406 5694.597656 -622.542969 C 5686.210938 -628.148438 5677.691406 -633.542969 5669.042969 -638.726562 C 5660.390625 -643.910156 5651.617188 -648.882812 5642.722656 -653.636719 C 5633.828125 -658.390625 5624.820312 -662.925781 5615.703125 -667.234375 C 5606.585938 -671.546875 5597.367188 -675.632812 5588.050781 -679.496094 C 5578.730469 -683.355469 5569.324219 -686.984375 5559.828125 -690.378906 C 5550.332031 -693.777344 5540.757812 -696.941406 5531.105469 -699.871094 C 5521.453125 -702.796875 5511.734375 -705.488281 5501.953125 -707.9375 C 5492.167969 -710.386719 5482.328125 -712.597656 5472.4375 -714.566406 C 5462.546875 -716.53125 5452.609375 -718.257812 5442.632812 -719.734375 C 5432.65625 -721.214844 5422.648438 -722.449219 5412.613281 -723.4375 C 5402.574219 -724.425781 5392.519531 -725.167969 5382.445312 -725.664062 C 5372.371094 -726.160156 5362.292969 -726.40625 5352.207031 -726.40625 Z M 5352.207031 -726.40625 "/>
</g>
<g clip-path="url(#clip34)" clip-rule="nonzero">
<path style=" stroke:none;fill-rule:nonzero;fill:rgb(45.098877%,45.098877%,45.098877%);fill-opacity:1;" d="M 5183 -247.804688 C 5178.851562 -247.804688 5174.707031 -247.703125 5170.5625 -247.5 C 5166.421875 -247.296875 5162.285156 -246.992188 5158.15625 -246.585938 C 5154.027344 -246.179688 5149.914062 -245.671875 5145.8125 -245.0625 C 5141.707031 -244.453125 5137.621094 -243.746094 5133.554688 -242.933594 C 5129.484375 -242.125 5125.441406 -241.21875 5121.414062 -240.210938 C 5117.390625 -239.203125 5113.394531 -238.09375 5109.425781 -236.890625 C 5105.457031 -235.6875 5101.519531 -234.386719 5097.613281 -232.988281 C 5093.707031 -231.59375 5089.839844 -230.097656 5086.007812 -228.511719 C 5082.175781 -226.925781 5078.382812 -225.246094 5074.636719 -223.472656 C 5070.886719 -221.699219 5067.179688 -219.832031 5063.523438 -217.878906 C 5059.863281 -215.921875 5056.257812 -213.878906 5052.699219 -211.746094 C 5049.140625 -209.613281 5045.636719 -207.394531 5042.1875 -205.089844 C 5038.742188 -202.785156 5035.351562 -200.398438 5032.019531 -197.925781 C 5028.6875 -195.457031 5025.417969 -192.90625 5022.210938 -190.273438 C 5019.003906 -187.644531 5015.863281 -184.933594 5012.792969 -182.148438 C 5009.71875 -179.363281 5006.714844 -176.503906 5003.78125 -173.570312 C 5000.847656 -170.636719 4997.988281 -167.632812 4995.203125 -164.5625 C 4992.417969 -161.488281 4989.710938 -158.347656 4987.078125 -155.140625 C 4984.445312 -151.933594 4981.894531 -148.664062 4979.425781 -145.335938 C 4976.953125 -142.003906 4974.566406 -138.613281 4972.261719 -135.164062 C 4969.957031 -131.714844 4967.738281 -128.210938 4965.605469 -124.652344 C 4963.472656 -121.09375 4961.429688 -117.488281 4959.476562 -113.828125 C 4957.519531 -110.171875 4955.65625 -106.46875 4953.882812 -102.71875 C 4952.109375 -98.96875 4950.425781 -95.175781 4948.839844 -91.34375 C 4947.253906 -87.511719 4945.761719 -83.644531 4944.363281 -79.738281 C 4942.964844 -75.832031 4941.664062 -71.894531 4940.460938 -67.925781 C 4939.257812 -63.957031 4938.152344 -59.960938 4937.144531 -55.9375 C 4936.136719 -51.914062 4935.226562 -47.867188 4934.417969 -43.796875 C 4933.609375 -39.730469 4932.898438 -35.644531 4932.289062 -31.542969 C 4931.683594 -27.4375 4931.175781 -23.324219 4930.769531 -19.195312 C 4930.359375 -15.066406 4930.054688 -10.933594 4929.851562 -6.789062 C 4929.648438 -2.644531 4929.546875 1.5 4929.546875 5.648438 C 4929.546875 9.796875 4929.648438 13.941406 4929.851562 18.082031 C 4930.054688 22.226562 4930.359375 26.363281 4930.769531 30.488281 C 4931.175781 34.617188 4931.683594 38.734375 4932.289062 42.835938 C 4932.898438 46.941406 4933.609375 51.023438 4934.417969 55.09375 C 4935.226562 59.160156 4936.136719 63.207031 4937.144531 67.230469 C 4938.152344 71.253906 4939.257812 75.25 4940.460938 79.222656 C 4941.664062 83.191406 4942.964844 87.128906 4944.363281 91.03125 C 4945.761719 94.9375 4947.253906 98.808594 4948.839844 102.640625 C 4950.425781 106.472656 4952.109375 110.261719 4953.882812 114.011719 C 4955.65625 117.761719 4957.519531 121.464844 4959.476562 125.125 C 4961.429688 128.78125 4963.472656 132.390625 4965.605469 135.949219 C 4967.738281 139.507812 4969.957031 143.007812 4972.261719 146.457031 C 4974.566406 149.90625 4976.953125 153.296875 4979.425781 156.628906 C 4981.894531 159.960938 4984.445312 163.230469 4987.078125 166.4375 C 4989.710938 169.640625 4992.417969 172.78125 4995.203125 175.855469 C 4997.988281 178.929688 5000.847656 181.933594 5003.78125 184.867188 C 5006.714844 187.796875 5009.71875 190.65625 5012.792969 193.445312 C 5015.863281 196.230469 5019.003906 198.9375 5022.210938 201.570312 C 5025.417969 204.199219 5028.6875 206.75 5032.019531 209.222656 C 5035.351562 211.695312 5038.742188 214.082031 5042.1875 216.386719 C 5045.636719 218.691406 5049.140625 220.910156 5052.699219 223.039062 C 5056.257812 225.171875 5059.863281 227.21875 5063.523438 229.171875 C 5067.179688 231.128906 5070.886719 232.992188 5074.636719 234.765625 C 5078.382812 236.539062 5082.175781 238.21875 5086.007812 239.808594 C 5089.839844 241.394531 5093.707031 242.886719 5097.613281 244.285156 C 5101.519531 245.679688 5105.457031 246.980469 5109.425781 248.1875 C 5113.394531 249.390625 5117.390625 250.496094 5121.414062 251.503906 C 5125.441406 252.511719 5129.484375 253.421875 5133.554688 254.230469 C 5137.621094 255.039062 5141.707031 255.75 5145.8125 256.355469 C 5149.914062 256.964844 5154.027344 257.472656 5158.15625 257.878906 C 5162.285156 258.285156 5166.421875 258.589844 5170.5625 258.792969 C 5174.707031 259 5178.851562 259.101562 5183 259.101562 C 5187.148438 259.101562 5191.292969 259 5195.4375 258.792969 C 5199.578125 258.589844 5203.714844 258.285156 5207.84375 257.878906 C 5211.96875 257.472656 5216.085938 256.964844 5220.1875 256.355469 C 5224.292969 255.75 5228.378906 255.039062 5232.445312 254.230469 C 5236.515625 253.421875 5240.558594 252.511719 5244.582031 251.503906 C 5248.609375 250.496094 5252.605469 249.390625 5256.574219 248.1875 C 5260.542969 246.980469 5264.480469 245.679688 5268.386719 244.285156 C 5272.289062 242.886719 5276.160156 241.394531 5279.992188 239.808594 C 5283.824219 238.21875 5287.613281 236.539062 5291.363281 234.765625 C 5295.113281 232.992188 5298.820312 231.128906 5302.476562 229.171875 C 5306.136719 227.21875 5309.742188 225.171875 5313.300781 223.039062 C 5316.859375 220.910156 5320.363281 218.691406 5323.8125 216.386719 C 5327.257812 214.082031 5330.648438 211.691406 5333.980469 209.222656 C 5337.3125 206.75 5340.582031 204.199219 5343.789062 201.570312 C 5346.996094 198.9375 5350.136719 196.230469 5353.207031 193.445312 C 5356.28125 190.65625 5359.285156 187.796875 5362.21875 184.867188 C 5365.152344 181.933594 5368.011719 178.929688 5370.796875 175.855469 C 5373.582031 172.78125 5376.289062 169.640625 5378.921875 166.4375 C 5381.554688 163.230469 5384.105469 159.960938 5386.574219 156.628906 C 5389.046875 153.296875 5391.433594 149.90625 5393.738281 146.457031 C 5396.042969 143.007812 5398.261719 139.507812 5400.394531 135.949219 C 5402.527344 132.390625 5404.570312 128.78125 5406.523438 125.125 C 5408.480469 121.464844 5410.34375 117.761719 5412.117188 114.011719 C 5413.890625 110.261719 5415.570312 106.472656 5417.160156 102.640625 C 5418.746094 98.808594 5420.238281 94.9375 5421.636719 91.03125 C 5423.035156 87.128906 5424.335938 83.191406 5425.539062 79.222656 C 5426.742188 75.25 5427.847656 71.253906 5428.855469 67.230469 C 5429.863281 63.207031 5430.773438 59.160156 5431.582031 55.09375 C 5432.390625 51.023438 5433.101562 46.941406 5433.710938 42.835938 C 5434.316406 38.734375 5434.824219 34.617188 5435.230469 30.488281 C 5435.640625 26.363281 5435.945312 22.226562 5436.148438 18.082031 C 5436.351562 13.941406 5436.453125 9.796875 5436.453125 5.648438 C 5436.453125 1.5 5436.351562 -2.644531 5436.148438 -6.789062 C 5435.945312 -10.933594 5435.640625 -15.066406 5435.230469 -19.195312 C 5434.824219 -23.324219 5434.316406 -27.4375 5433.710938 -31.542969 C 5433.101562 -35.644531 5432.390625 -39.730469 5431.582031 -43.796875 C 5430.773438 -47.867188 5429.863281 -51.914062 5428.855469 -55.9375 C 5427.847656 -59.960938 5426.742188 -63.957031 5425.539062 -67.925781 C 5424.335938 -71.894531 5423.035156 -75.832031 5421.636719 -79.738281 C 5420.238281 -83.644531 5418.746094 -87.511719 5417.160156 -91.34375 C 5415.570312 -95.175781 5413.890625 -98.96875 5412.117188 -102.71875 C 5410.34375 -106.46875 5408.480469 -110.171875 5406.523438 -113.828125 C 5404.570312 -117.488281 5402.527344 -121.09375 5400.394531 -124.652344 C 5398.261719 -128.210938 5396.042969 -131.714844 5393.738281 -135.164062 C 5391.433594 -138.613281 5389.046875 -142.003906 5386.574219 -145.335938 C 5384.105469 -148.664062 5381.554688 -151.933594 5378.921875 -155.140625 C 5376.289062 -158.347656 5373.582031 -161.488281 5370.796875 -164.5625 C 5368.011719 -167.632812 5365.152344 -170.636719 5362.21875 -173.570312 C 5359.285156 -176.503906 5356.28125 -179.363281 5353.207031 -182.148438 C 5350.136719 -184.933594 5346.996094 -187.644531 5343.789062 -190.273438 C 5340.582031 -192.90625 5337.3125 -195.457031 5333.980469 -197.925781 C 5330.648438 -200.398438 5327.257812 -202.785156 5323.8125 -205.089844 C 5320.363281 -207.394531 5316.859375 -209.613281 5313.300781 -211.746094 C 5309.742188 -213.878906 5306.136719 -215.921875 5302.476562 -217.878906 C 5298.820312 -219.832031 5295.113281 -221.699219 5291.363281 -223.472656 C 5287.613281 -225.246094 5283.824219 -226.925781 5279.992188 -228.511719 C 5276.160156 -230.097656 5272.292969 -231.59375 5268.386719 -232.988281 C 5264.480469 -234.386719 5260.542969 -235.6875 5256.574219 -236.890625 C 5252.605469 -238.09375 5248.609375 -239.203125 5244.582031 -240.210938 C 5240.558594 -241.21875 5236.515625 -242.125 5232.445312 -242.933594 C 5228.378906 -243.746094 5224.292969 -244.453125 5220.1875 -245.0625 C 5216.085938 -245.671875 5211.96875 -246.179688 5207.84375 -246.585938 C 5203.714844 -246.992188 5199.578125 -247.296875 5195.4375 -247.5 C 5191.292969 -247.703125 5187.148438 -247.804688 5183 -247.804688 Z M 5183 -247.804688 "/>
</g>
<g clip-path="url(#clip35)" clip-rule="nonzero">
<path style=" stroke:none;fill-rule:nonzero;fill:rgb(36.079407%,88.238525%,90.19928%);fill-opacity:1;" d="M 5188.457031 -158.101562 C 5185.777344 -158.101562 5183.097656 -158.035156 5180.421875 -157.90625 C 5177.746094 -157.773438 5175.074219 -157.578125 5172.40625 -157.3125 C 5169.738281 -157.050781 5167.078125 -156.722656 5164.429688 -156.332031 C 5161.777344 -155.9375 5159.136719 -155.480469 5156.511719 -154.957031 C 5153.882812 -154.433594 5151.269531 -153.847656 5148.667969 -153.195312 C 5146.070312 -152.542969 5143.488281 -151.828125 5140.921875 -151.050781 C 5138.355469 -150.273438 5135.8125 -149.433594 5133.289062 -148.53125 C 5130.765625 -147.628906 5128.265625 -146.664062 5125.792969 -145.636719 C 5123.316406 -144.613281 5120.867188 -143.527344 5118.445312 -142.382812 C 5116.019531 -141.234375 5113.628906 -140.03125 5111.265625 -138.765625 C 5108.902344 -137.503906 5106.570312 -136.183594 5104.273438 -134.804688 C 5101.972656 -133.429688 5099.710938 -131.996094 5097.480469 -130.503906 C 5095.253906 -129.015625 5093.0625 -127.472656 5090.910156 -125.878906 C 5088.757812 -124.28125 5086.644531 -122.632812 5084.574219 -120.933594 C 5082.503906 -119.234375 5080.472656 -117.484375 5078.488281 -115.683594 C 5076.503906 -113.882812 5074.5625 -112.035156 5072.667969 -110.140625 C 5070.773438 -108.246094 5068.925781 -106.304688 5067.125 -104.320312 C 5065.324219 -102.335938 5063.574219 -100.304688 5061.875 -98.234375 C 5060.175781 -96.164062 5058.527344 -94.050781 5056.929688 -91.898438 C 5055.335938 -89.746094 5053.792969 -87.554688 5052.304688 -85.328125 C 5050.8125 -83.097656 5049.378906 -80.835938 5048.003906 -78.535156 C 5046.625 -76.238281 5045.304688 -73.90625 5044.042969 -71.542969 C 5042.777344 -69.179688 5041.574219 -66.789062 5040.425781 -64.363281 C 5039.28125 -61.941406 5038.195312 -59.492188 5037.171875 -57.015625 C 5036.144531 -54.542969 5035.179688 -52.042969 5034.277344 -49.519531 C 5033.375 -46.996094 5032.535156 -44.453125 5031.757812 -41.886719 C 5030.980469 -39.320312 5030.265625 -36.738281 5029.613281 -34.140625 C 5028.960938 -31.539062 5028.375 -28.925781 5027.851562 -26.296875 C 5027.328125 -23.671875 5026.871094 -21.03125 5026.476562 -18.378906 C 5026.085938 -15.730469 5025.757812 -13.070312 5025.496094 -10.402344 C 5025.230469 -7.734375 5025.035156 -5.0625 5024.902344 -2.386719 C 5024.773438 0.289062 5024.707031 2.96875 5024.707031 5.648438 C 5024.707031 8.328125 5024.773438 11.003906 5024.902344 13.683594 C 5025.035156 16.359375 5025.230469 19.03125 5025.496094 21.699219 C 5025.757812 24.363281 5026.085938 27.023438 5026.476562 29.675781 C 5026.871094 32.324219 5027.328125 34.964844 5027.851562 37.59375 C 5028.375 40.222656 5028.960938 42.835938 5029.613281 45.433594 C 5030.265625 48.035156 5030.980469 50.617188 5031.757812 53.179688 C 5032.535156 55.746094 5033.375 58.289062 5034.277344 60.8125 C 5035.179688 63.335938 5036.144531 65.835938 5037.171875 68.3125 C 5038.195312 70.789062 5039.28125 73.238281 5040.425781 75.660156 C 5041.574219 78.082031 5042.777344 80.476562 5044.042969 82.839844 C 5045.304688 85.203125 5046.625 87.535156 5048.003906 89.832031 C 5049.378906 92.128906 5050.8125 94.394531 5052.304688 96.621094 C 5053.792969 98.851562 5055.335938 101.039062 5056.929688 103.191406 C 5058.527344 105.347656 5060.175781 107.457031 5061.875 109.53125 C 5063.574219 111.601562 5065.324219 113.628906 5067.125 115.617188 C 5068.925781 117.601562 5070.773438 119.542969 5072.667969 121.4375 C 5074.5625 123.332031 5076.503906 125.179688 5078.488281 126.976562 C 5080.472656 128.777344 5082.503906 130.527344 5084.574219 132.226562 C 5086.644531 133.929688 5088.757812 135.578125 5090.910156 137.171875 C 5093.0625 138.769531 5095.253906 140.3125 5097.480469 141.800781 C 5099.710938 143.289062 5101.972656 144.722656 5104.273438 146.101562 C 5106.570312 147.476562 5108.902344 148.800781 5111.265625 150.0625 C 5113.628906 151.324219 5116.019531 152.53125 5118.445312 153.675781 C 5120.867188 154.820312 5123.316406 155.90625 5125.792969 156.933594 C 5128.265625 157.957031 5130.765625 158.921875 5133.289062 159.824219 C 5135.8125 160.726562 5138.355469 161.570312 5140.921875 162.347656 C 5143.488281 163.125 5146.070312 163.839844 5148.667969 164.492188 C 5151.269531 165.140625 5153.882812 165.726562 5156.511719 166.25 C 5159.136719 166.773438 5161.777344 167.230469 5164.429688 167.625 C 5167.078125 168.019531 5169.738281 168.347656 5172.40625 168.609375 C 5175.074219 168.871094 5177.746094 169.070312 5180.421875 169.199219 C 5183.097656 169.332031 5185.777344 169.398438 5188.457031 169.398438 C 5191.136719 169.398438 5193.8125 169.332031 5196.492188 169.199219 C 5199.167969 169.070312 5201.839844 168.871094 5204.507812 168.609375 C 5207.171875 168.347656 5209.832031 168.019531 5212.484375 167.625 C 5215.132812 167.230469 5217.773438 166.773438 5220.402344 166.25 C 5223.03125 165.726562 5225.644531 165.140625 5228.242188 164.492188 C 5230.84375 163.839844 5233.425781 163.125 5235.992188 162.347656 C 5238.554688 161.570312 5241.097656 160.726562 5243.621094 159.824219 C 5246.144531 158.921875 5248.644531 157.957031 5251.121094 156.933594 C 5253.597656 155.90625 5256.046875 154.820312 5258.46875 153.675781 C 5260.890625 152.53125 5263.285156 151.324219 5265.648438 150.0625 C 5268.011719 148.800781 5270.34375 147.476562 5272.640625 146.101562 C 5274.9375 144.722656 5277.203125 143.289062 5279.429688 141.800781 C 5281.660156 140.3125 5283.847656 138.769531 5286 137.171875 C 5288.15625 135.578125 5290.265625 133.929688 5292.339844 132.226562 C 5294.410156 130.527344 5296.4375 128.777344 5298.425781 126.976562 C 5300.410156 125.179688 5302.351562 123.332031 5304.246094 121.4375 C 5306.140625 119.542969 5307.988281 117.601562 5309.785156 115.617188 C 5311.585938 113.628906 5313.335938 111.601562 5315.035156 109.53125 C 5316.738281 107.457031 5318.386719 105.347656 5319.980469 103.191406 C 5321.578125 101.039062 5323.121094 98.851562 5324.609375 96.621094 C 5326.097656 94.394531 5327.53125 92.128906 5328.910156 89.832031 C 5330.285156 87.535156 5331.609375 85.203125 5332.871094 82.839844 C 5334.132812 80.476562 5335.339844 78.082031 5336.484375 75.660156 C 5337.628906 73.238281 5338.714844 70.789062 5339.742188 68.3125 C 5340.765625 65.835938 5341.730469 63.335938 5342.632812 60.8125 C 5343.535156 58.289062 5344.378906 55.746094 5345.15625 53.183594 C 5345.933594 50.617188 5346.648438 48.035156 5347.300781 45.433594 C 5347.949219 42.835938 5348.535156 40.222656 5349.058594 37.59375 C 5349.582031 34.964844 5350.039062 32.324219 5350.433594 29.675781 C 5350.828125 27.023438 5351.15625 24.363281 5351.417969 21.699219 C 5351.679688 19.03125 5351.878906 16.359375 5352.007812 13.683594 C 5352.140625 11.003906 5352.207031 8.328125 5352.207031 5.648438 C 5352.207031 2.96875 5352.140625 0.289062 5352.007812 -2.386719 C 5351.878906 -5.0625 5351.679688 -7.734375 5351.417969 -10.402344 C 5351.15625 -13.070312 5350.828125 -15.730469 5350.433594 -18.378906 C 5350.039062 -21.03125 5349.582031 -23.671875 5349.058594 -26.296875 C 5348.535156 -28.925781 5347.949219 -31.539062 5347.300781 -34.140625 C 5346.648438 -36.738281 5345.933594 -39.320312 5345.15625 -41.886719 C 5344.378906 -44.453125 5343.535156 -46.996094 5342.632812 -49.519531 C 5341.730469 -52.042969 5340.765625 -54.542969 5339.742188 -57.015625 C 5338.714844 -59.492188 5337.628906 -61.941406 5336.484375 -64.363281 C 5335.339844 -66.789062 5334.132812 -69.179688 5332.871094 -71.542969 C 5331.609375 -73.90625 5330.285156 -76.238281 5328.910156 -78.535156 C 5327.53125 -80.835938 5326.097656 -83.097656 5324.609375 -85.328125 C 5323.121094 -87.554688 5321.578125 -89.746094 5319.980469 -91.898438 C 5318.386719 -94.050781 5316.738281 -96.164062 5315.035156 -98.234375 C 5313.335938 -100.304688 5311.585938 -102.335938 5309.785156 -104.320312 C 5307.988281 -106.304688 5306.140625 -108.246094 5304.246094 -110.140625 C 5302.351562 -112.035156 5300.410156 -113.882812 5298.425781 -115.683594 C 5296.4375 -117.484375 5294.410156 -119.234375 5292.339844 -120.933594 C 5290.265625 -122.632812 5288.15625 -124.28125 5286.003906 -125.878906 C 5283.847656 -127.472656 5281.660156 -129.015625 5279.429688 -130.503906 C 5277.203125 -131.996094 5274.9375 -133.429688 5272.640625 -134.804688 C 5270.34375 -136.183594 5268.011719 -137.503906 5265.648438 -138.765625 C 5263.285156 -140.03125 5260.890625 -141.234375 5258.46875 -142.382812 C 5256.046875 -143.527344 5253.597656 -144.613281 5251.121094 -145.636719 C 5248.644531 -146.664062 5246.144531 -147.628906 5243.621094 -148.53125 C 5241.097656 -149.433594 5238.554688 -150.273438 5235.992188 -151.050781 C 5233.425781 -151.828125 5230.84375 -152.542969 5228.242188 -153.195312 C 5225.644531 -153.847656 5223.03125 -154.433594 5220.402344 -154.957031 C 5217.773438 -155.480469 5215.132812 -155.9375 5212.484375 -156.332031 C 5209.832031 -156.722656 5207.171875 -157.050781 5204.507812 -157.3125 C 5201.839844 -157.578125 5199.167969 -157.773438 5196.492188 -157.90625 C 5193.8125 -158.035156 5191.136719 -158.101562 5188.457031 -158.101562 Z M 5188.457031 -158.101562 "/>
</g>
</g>
</svg>
